<svg xmlns="http://www.w3.org/2000/svg" viewBox="0 0 512 512" version="1.1">
	<path d="M 231 1.956 C 189.130 5.941, 149.400 19.986, 114.396 43.177 C 96.952 54.735, 78 70.527, 78 73.505 C 78 74.099, 81.037 76.347, 84.750 78.502 C 88.462 80.656, 102.075 88.689, 115 96.353 C 143.418 113.204, 199.019 146.151, 238.500 169.536 C 254.450 178.983, 274.925 191.123, 284 196.514 C 293.075 201.904, 307.401 210.357, 315.836 215.299 C 324.270 220.240, 331.405 224.892, 331.691 225.637 C 331.977 226.381, 328.946 232.505, 324.956 239.245 C 320.966 245.985, 313.427 258.700, 308.203 267.500 C 298.377 284.051, 286.618 303.935, 271.833 329 C 267.128 336.975, 256.758 354.525, 248.788 368 C 240.817 381.475, 228.325 402.625, 221.027 415 C 213.730 427.375, 207.195 438.102, 206.505 438.839 C 205.465 439.949, 203.224 439.499, 193.327 436.190 C 172.990 429.391, 156.281 420.653, 138.500 407.520 C 129.845 401.127, 108.397 380.701, 109.836 380.221 C 110.873 379.876, 118.804 384.318, 142.500 398.517 C 172.277 416.361, 178.723 420, 180.549 419.995 C 182.032 419.992, 185.859 414.320, 196.500 396.359 C 204.200 383.361, 210.637 371.941, 210.804 370.981 C 211.119 369.175, 209.110 367.914, 155.500 336.267 C 119.580 315.062, 63.522 281.809, 63.210 281.521 C 62.173 280.564, 61.846 264, 62.865 264 C 63.504 264, 68.859 266.871, 74.764 270.381 C 93.804 281.697, 102.187 286.657, 118.500 296.262 C 137.011 307.161, 179.780 332.536, 195.793 342.120 C 208.775 349.891, 218.149 355, 219.424 355 C 220.265 355, 221.578 353.987, 222.341 352.750 C 233.510 334.627, 250.046 305.564, 249.697 304.667 C 249.448 304.025, 243.002 299.846, 235.372 295.381 C 227.743 290.916, 214.075 282.855, 205 277.468 C 189.559 268.302, 164.201 253.320, 150.500 245.268 C 147.200 243.328, 135.950 236.668, 125.500 230.468 C 115.050 224.267, 98.850 214.666, 89.500 209.131 C 80.150 203.597, 71.870 198.696, 71.100 198.239 C 69.929 197.544, 70.064 196.318, 71.928 190.715 C 73.153 187.034, 74.540 183.784, 75.009 183.494 C 75.808 183, 91.996 192.381, 157 231.008 C 171.575 239.669, 199.250 256.073, 218.500 267.462 C 237.750 278.851, 253.928 288.581, 254.450 289.085 C 257.476 292, 259.617 289.993, 267.057 277.264 C 271.150 270.259, 277.714 259.145, 281.642 252.565 C 285.570 245.985, 288.593 240.129, 288.360 239.551 C 288.126 238.973, 282.437 235.270, 275.718 231.322 C 262.179 223.369, 223.935 200.740, 200 186.520 C 144.734 153.687, 105.549 130.544, 76.500 113.581 C 68.250 108.763, 60.281 103.961, 58.790 102.911 C 53.705 99.324, 52.674 100.064, 43.675 113.750 C 25.646 141.170, 15.631 164.399, 8.040 196.404 C 3.249 216.603, 2.500 224.320, 2.500 253.500 C 2.500 281.669, 3.023 287.262, 7.644 308.500 C 23.699 382.288, 73.999 446.090, 142.409 479.441 C 169.386 492.593, 191.204 499.140, 222.685 503.529 C 236.660 505.478, 278.363 505.172, 290 503.036 C 346.620 492.640, 381.714 476.150, 422.866 440.603 C 456.883 411.220, 486.209 363.038, 498.076 317.036 C 511.853 263.628, 507.602 205.197, 486.289 155 C 455.937 83.515, 393.667 29.358, 319 9.504 C 293.707 2.779, 256.179 -0.440, 231 1.956 M 226.252 63.029 C 214.960 64.740, 196.289 69.196, 193.187 70.920 C 191.404 71.911, 190.875 71.553, 216.500 86.714 C 253.188 108.420, 297.607 134.739, 314 144.482 C 327.897 152.742, 343.006 161.695, 388.500 188.625 C 411.851 202.447, 414 203.858, 414 205.372 C 414 206.174, 412 210.131, 409.555 214.165 C 407.111 218.199, 403.435 224.425, 401.387 228 C 399.338 231.575, 393.099 242.150, 387.523 251.500 C 381.946 260.850, 372.734 276.375, 367.052 286 C 361.370 295.625, 353.470 308.900, 349.495 315.500 C 345.521 322.100, 336.304 337.625, 329.013 350 C 321.722 362.375, 313.856 375.650, 311.532 379.500 C 309.208 383.350, 301.306 396.625, 293.973 409 C 286.639 421.375, 278.899 434.425, 276.773 438 C 271.949 446.109, 272.014 446.131, 290.261 442.528 C 363.996 427.971, 422.006 372.958, 440.482 300.071 C 447.968 270.537, 447.981 236.514, 440.517 207.068 C 422.366 135.462, 363.783 79.210, 292.500 64.941 C 271.617 60.761, 246.084 60.024, 226.252 63.029" stroke="none" fill="#56EB3C" fill-rule="evenodd"/>
</svg>